<?xml version="1.0" encoding="utf-8"?>
<!DOCTYPE svg PUBLIC "-//W3C//DTD SVG 1.0//EN" "http://www.w3.org/TR/2001/REC-SVG-20010904/DTD/svg10.dtd">
<svg version="1.0" xmlns="http://www.w3.org/2000/svg" width="1536px" height="1024px" viewBox="0 0 1536 1024" preserveAspectRatio="xMidYMid meet">
 <g fill="#000000">
  <path d="M352.98 675.94 c-19.08 -17.35 -59.32 -63.38 -80.37 -91.94 -20.68 -27.94 -36.06 -54.03 -44.92 -76.18 -14.15 -35.82 -12.80 -72.12 4.06 -107.82 4.80 -10.34 4.92 -10.58 5.05 -25.48 0.12 -14.52 0.25 -15.02 3.82 -20.18 4.55 -6.52 17.60 -13.78 34.71 -19.32 50.95 -16.49 107.94 -17.48 157.91 -2.71 16.86 5.05 36.31 14.40 41.85 20.18 l4.31 4.55 0.74 16.25 0.62 16.25 6.52 14.03 c9.72 20.92 12.68 33.72 12.92 54.89 0.12 12.92 -0.49 19.69 -2.22 27.08 -9.48 40.86 -35.32 84.68 -85.54 145.23 -18.95 22.89 -29.42 34.83 -38.15 44.06 -8.98 9.23 -12.18 9.48 -21.29 1.11z m24.86 -146.22 c14.03 -3.20 25.35 -9.72 36.31 -20.80 16 -15.88 22.03 -30.40 21.78 -52.31 -0.12 -19.82 -6.03 -34.34 -20.06 -49.60 -31.14 -34.09 -88.37 -31.51 -117.17 5.17 -29.05 36.92 -16.25 90.22 26.83 111.51 15.63 7.75 35.57 9.97 52.31 6.03z"/>
  <path d="M573.54 603.08 l0 -4.92 360.12 0 360 0 -0.37 4.68 -0.37 4.55 -359.63 0.37 -359.75 0.25 0 -4.92z"/>
  <path d="M584.62 565.54 l0 -16.62 -6.03 0 c-6.28 0 -7.51 -1.11 -7.51 -6.28 0 -2.22 1.11 -2.34 18.46 -2.34 l18.46 0 0 4.18 0 4.31 -6.40 0.37 -6.52 0.37 -0.37 16.37 -0.37 16.25 -4.80 0 -4.92 0 0 -16.62z"/>
  <path d="M620.31 579.94 c-7.02 -3.69 -8.62 -8.49 -8.62 -25.11 l0 -14.52 4.80 0 4.80 0 0.49 13.42 c0.49 15.38 1.97 18.58 9.11 18.58 6.52 0 7.88 -3.20 7.88 -18.71 l0 -13.29 5.54 0 5.54 0 0 13.91 c0 15.75 -1.60 20.55 -8.49 25.11 -5.29 3.57 -14.89 3.82 -21.05 0.62z"/>
  <path d="M674.09 581.29 c-0.49 -0.37 -0.86 -9.85 -0.86 -20.92 l0 -20.06 5.29 0 5.17 0 6.15 11.08 c3.45 6.03 6.52 11.08 7.02 11.08 0.49 0 3.82 -4.92 7.38 -10.95 6.03 -10.46 6.65 -10.95 11.08 -11.45 l4.68 -0.49 0 21.29 0 21.29 -4.92 0 -4.92 0 0 -11.32 0 -11.45 -4.18 6.77 c-6.89 11.08 -7.63 11.94 -10.22 10.34 -1.23 -0.74 -4.18 -4.55 -6.52 -8.49 -3.94 -6.65 -4.31 -7.02 -5.05 -4.18 -0.49 1.60 -0.86 6.40 -0.98 10.71 l-0.12 7.63 -4.06 0 c-2.34 0 -4.55 -0.37 -4.92 -0.86z"/>
  <path d="M724.92 580.43 c0 -0.98 2.71 -8 6.03 -15.75 10.83 -25.11 11.20 -25.85 13.29 -25.11 0.98 0.37 3.32 0.74 5.17 0.74 3.20 0 3.94 1.11 11.45 18.34 11.20 25.23 10.83 23.51 4.18 23.51 -5.17 0 -5.54 -0.25 -6.89 -4.31 l-1.48 -4.31 -9.60 0 -9.60 0 -1.48 4.31 c-1.35 3.94 -1.85 4.31 -6.28 4.31 -3.32 0 -4.80 -0.49 -4.80 -1.72z m27.08 -16.37 c0 -1.97 -4.06 -11.45 -4.92 -11.45 -0.86 0 -4.92 9.48 -4.92 11.45 0 0.49 2.22 0.86 4.92 0.86 2.71 0 4.92 -0.37 4.92 -0.86z"/>
  <path d="M775.02 581.42 c-0.49 -0.49 -0.86 -9.97 -0.86 -21.05 l0 -20.06 13.54 0 13.54 0 4.68 4.18 c4.18 3.82 4.55 4.80 4.55 10.58 0 5.66 -0.49 6.77 -4.43 10.46 -3.82 3.45 -5.78 4.18 -12.55 4.92 l-8.12 0.86 -0.37 5.17 c-0.37 4.80 -0.62 5.05 -4.68 5.42 -2.46 0.25 -4.80 0 -5.29 -0.49z m23.51 -21.66 c2.09 -2.09 1.85 -6.65 -0.49 -8.86 -1.11 -1.23 -4.06 -1.97 -7.38 -1.97 -5.05 0 -5.42 0.25 -5.42 3.45 0 1.85 -0.37 4.55 -0.74 6.15 -0.74 2.58 -0.37 2.71 5.91 2.71 3.69 0 7.26 -0.62 8.12 -1.48z"/>
  <path d="M809.85 580.68 c0 -0.86 3.82 -10.22 8.49 -20.68 l8.49 -19.08 5.05 -0.74 c3.08 -0.37 5.54 -0.12 6.03 0.62 1.23 1.72 17.48 39.26 17.48 40.49 0 0.49 -2.22 0.86 -4.92 0.86 -4.43 0 -5.17 -0.49 -7.02 -4.31 l-2.09 -4.31 -8.98 0 -8.98 0 -1.72 4.31 c-1.72 3.94 -2.34 4.31 -6.77 4.31 -3.20 0 -5.05 -0.62 -5.05 -1.48z m27.08 -17.23 c0 -0.86 -1.11 -3.82 -2.34 -6.52 l-2.22 -4.92 -2.09 4.80 c-2.95 7.02 -2.58 8.12 2.34 8.12 2.58 0 4.31 -0.62 4.31 -1.48z"/>
  <path d="M875.94 581.29 c-0.49 -0.37 -0.86 -9.72 -0.86 -20.80 l0 -19.94 4.68 -0.62 c2.46 -0.25 4.92 -0.25 5.54 0 0.49 0.25 0.86 9.85 0.86 21.42 l0 20.80 -4.68 0 c-2.58 0 -5.17 -0.37 -5.54 -0.86z"/>
  <path d="M894.77 561.23 l0 -20.92 4.68 0 c4.31 0.12 5.17 0.86 13.78 11.32 l9.23 11.32 0.37 -11.32 0.37 -11.32 4.80 0 4.92 0 0 20.92 0 20.92 -4.18 0 c-3.57 0 -4.80 -0.86 -9.11 -6.40 -2.71 -3.57 -7.26 -8.98 -9.97 -12.06 l-4.92 -5.54 -0.12 12.06 0 11.94 -4.92 0 -4.92 0 0 -20.92z"/>
  <path d="M951.38 575.75 c0 -3.57 -0.37 -11.08 -0.86 -16.62 l-0.74 -10.22 -6.03 0 -6.03 0 0.37 -4.55 c0.25 -2.83 0.98 -4.68 1.97 -4.55 0.74 0.12 8.98 0.25 18.09 0.37 l16.62 0.12 0 4.31 0 4.31 -6.77 0 -6.77 0 0 16.62 0 16.62 -4.92 0 -4.92 0 0 -6.40z"/>
  <path d="M979.32 581.42 c-0.49 -0.49 -0.86 -9.97 -0.86 -21.05 l0 -20.06 13.54 -0.25 c7.51 -0.12 14.52 -0.25 15.75 -0.25 1.60 -0.12 2.22 0.98 2.46 4.55 l0.37 4.55 -10.46 0 -10.58 0 0 3.69 0 3.69 9.97 0 c8.62 0 9.85 0.25 9.23 1.97 -0.37 1.11 -0.74 2.95 -0.74 4.31 0 2.09 -0.98 2.34 -9.23 2.34 l-9.23 0 0 3.69 c0 3.57 0.25 3.69 5.42 3.69 2.95 0 7.88 0.37 11.08 0.74 5.54 0.86 5.78 0.98 5.42 4.68 l-0.37 3.82 -15.51 0.37 c-8.49 0.12 -15.75 -0.12 -16.25 -0.49z"/>
  <path d="M1018.71 581.42 c-0.49 -0.49 -0.86 -9.97 -0.86 -21.05 l0 -20.06 12.92 0 c9.23 0 14.15 0.49 16.62 1.85 8.37 4.31 9.72 16.62 2.58 23.02 l-3.82 3.45 4.31 5.66 c2.34 3.08 4.31 6.15 4.31 6.77 0 0.62 -2.34 1.11 -5.29 1.11 -4.80 0 -5.54 -0.49 -9.48 -5.78 -2.95 -4.06 -5.42 -6.03 -7.63 -6.28 -3.08 -0.37 -3.32 -0.12 -3.69 5.54 -0.37 5.78 -0.49 5.91 -4.68 6.28 -2.46 0.25 -4.80 0 -5.29 -0.49z m22.65 -21.42 c2.71 -1.48 3.20 -7.26 0.86 -9.60 -0.86 -0.86 -4.18 -1.48 -7.38 -1.48 l-5.91 0 0 6.15 0 6.15 5.05 0 c2.71 0 6.03 -0.62 7.38 -1.23z"/>
  <path d="M1056.86 581.29 c-0.25 -0.62 3.45 -9.97 8.25 -20.92 l8.74 -19.94 5.66 -0.12 5.54 0 8.86 20.06 c4.92 10.95 8.86 20.31 8.86 20.92 0 0.49 -2.46 0.86 -5.42 0.86 -5.17 0 -5.54 -0.25 -6.89 -4.31 l-1.48 -4.31 -9.11 0 -9.11 0 -2.09 4.31 c-1.85 3.82 -2.58 4.31 -6.65 4.31 -2.58 0 -4.92 -0.37 -5.17 -0.86z m27.45 -17.60 c0 -1.97 -3.94 -11.08 -4.80 -11.08 -0.74 0 -5.05 9.60 -5.05 11.45 0 0.49 2.22 0.86 4.92 0.86 2.71 0 4.92 -0.49 4.92 -1.23z"/>
  <path d="M1114.58 579.32 c-7.88 -4.43 -9.97 -8.25 -9.97 -18.46 0 -7.02 0.49 -9.60 2.46 -12.06 8.12 -10.83 25.60 -12.92 33.85 -4.18 l2.83 2.95 -2.95 2.46 c-3.57 2.95 -5.29 3.20 -7.26 0.74 -1.97 -2.34 -10.95 -2.46 -14.28 0 -9.60 6.65 -4.68 21.54 7.14 21.54 2.95 0 6.65 -0.86 8.12 -1.97 2.71 -1.85 3.08 -1.85 5.78 0.74 3.69 3.45 2.83 5.42 -3.57 8.62 -7.02 3.32 -15.88 3.20 -22.15 -0.37z"/>
  <path d="M1157.78 581.29 c-0.49 -0.37 -0.86 -7.88 -0.86 -16.62 l0 -15.75 -6.15 0 -6.15 0 0 -4.31 0 -4.31 17.72 0 17.72 0 0.49 4.31 0.49 4.31 -6.52 0 -6.52 0 0 16.62 0 16.62 -4.68 0 c-2.58 0 -5.17 -0.37 -5.54 -0.86z"/>
  <path d="M1185.23 561.23 l0 -20.92 5.54 0 5.54 0 0 18.95 c0 10.46 -0.37 19.82 -0.74 20.92 -0.49 1.35 -2.34 1.97 -5.54 1.97 l-4.80 0 0 -20.92z"/>
  <path d="M1215.26 577.60 c-6.03 -14.03 -15.26 -36.43 -15.26 -37.17 0 -0.37 2.58 -0.62 5.78 -0.62 l5.66 0.12 2.71 7.26 c5.78 15.38 7.38 18.95 8 18.95 0.37 0 3.20 -5.91 6.28 -13.17 l5.54 -13.29 4.80 0.37 c2.71 0.25 5.05 0.62 5.29 0.86 0.37 0.37 -8 21.05 -13.78 34.22 -3.08 6.89 -3.32 7.02 -8.12 7.02 -4.43 0 -5.05 -0.37 -6.89 -4.55z"/>
  <path d="M1256.37 579.69 c-13.05 -6.89 -15.38 -21.91 -5.05 -33.23 12.18 -13.66 35.45 -7.26 39.14 10.71 0.98 4.92 -1.11 12.55 -4.55 16.98 -5.91 7.51 -20.43 10.22 -29.54 5.54z m19.57 -10.09 c3.57 -3.94 4.43 -7.75 2.83 -12.68 -1.72 -5.29 -5.42 -8 -10.83 -8 -5.42 0 -8.37 1.72 -10.83 6.40 -2.58 4.92 -1.35 11.20 2.83 14.52 4.43 3.45 12.68 3.32 16 -0.25z"/>
  <path d="M707.69 463.88 c-13.78 -2.71 -25.97 -12.68 -32.86 -26.71 -2.83 -5.91 -3.45 -8.86 -3.82 -19.45 -0.62 -14.89 1.48 -23.63 7.88 -33.23 4.92 -7.51 10.09 -11.69 19.94 -16.25 6.15 -2.95 8.49 -3.32 19.32 -3.32 10.22 0.12 13.17 0.49 17.48 2.83 2.83 1.48 5.42 3.20 5.91 3.94 2.46 3.94 3.08 -0.86 3.08 -23.38 l0 -24.62 5.29 -0.12 c2.83 -0.12 9.48 -0.25 14.65 -0.37 l9.48 -0.12 0.86 8.98 c0.37 4.92 0.62 36.18 0.25 69.54 l-0.49 60.55 -13.78 0.37 -13.78 0.37 0 -4.43 c0 -2.34 -0.37 -4.31 -0.74 -4.31 -0.49 0 -2.71 1.60 -4.92 3.69 -7.38 6.40 -20.06 8.74 -33.72 6.03z m24.98 -24.98 c13.05 -5.42 18.09 -26.09 9.97 -40 -6.77 -11.57 -25.11 -13.29 -35.82 -3.45 -7.14 6.52 -8.37 24.25 -2.34 34.58 5.29 9.11 17.97 13.17 28.18 8.86z"/>
  <path d="M815.63 464 c-12.18 -3.08 -21.66 -11.57 -24.74 -22.28 -1.60 -5.17 -1.97 -13.29 -1.97 -40.74 l0 -34.22 14.77 0 14.77 0 0 30.15 c0 33.72 0.62 36.92 7.63 41.23 7.75 4.68 19.32 2.22 24.86 -5.29 2.46 -3.20 2.58 -5.66 3.20 -34.46 l0.62 -31.02 15.14 -0.37 15.02 -0.37 0 48.12 0 48 -14.15 0 -14.15 0 0 -5.17 0 -5.17 -3.32 3.32 c-7.88 7.38 -25.35 11.32 -37.66 8.25z"/>
  <path d="M1103.38 464 c-26.71 -4.80 -42.46 -23.38 -42.46 -49.97 0 -22.77 13.05 -41.23 33.48 -47.38 11.08 -3.45 27.94 -2.83 36.92 1.11 16.74 7.38 26.83 25.97 26.83 49.85 l0 5.78 -33.85 0 -33.85 0 1.35 3.45 c2.09 5.42 8.49 11.08 15.02 13.29 7.88 2.58 19.08 1.72 29.29 -2.46 l7.38 -2.95 1.11 2.58 c0.49 1.48 2.46 6.03 4.18 10.09 l3.32 7.26 -2.83 2.22 c-7.51 5.78 -32 9.60 -45.91 7.14z m26.09 -63.63 c-0.49 -2.95 -2.34 -6.15 -5.05 -8.86 -3.94 -3.82 -5.17 -4.31 -12.06 -4.80 -6.52 -0.37 -8.37 0 -11.94 2.46 -5.05 3.45 -8.37 7.75 -9.48 12.43 l-0.74 3.32 19.94 0 20.06 0 -0.74 -4.55z"/>
  <path d="M574.15 461.29 c-0.37 -0.86 -0.49 -30.89 -0.37 -66.83 l0.37 -65.23 44.68 -0.37 44.68 -0.25 -0.37 12.43 -0.37 12.31 -28.55 -0.12 -28.68 -0.12 0 14.89 0 14.77 26.46 0 26.46 0 0 12.31 0 12.31 -26.46 0 -26.46 0 0 14.77 0 14.77 29.54 0 29.54 0 0 12.92 0 12.92 -44.92 0 c-34.83 0 -45.17 -0.37 -45.54 -1.48z"/>
  <path d="M902.15 395.69 l0 -67.20 17.97 0.37 17.97 0.37 8.62 15.38 c4.68 8.49 13.05 23.51 18.46 33.60 5.42 9.97 10.34 18.09 10.71 18.09 0.49 0 6.28 -10.09 13.05 -22.40 6.65 -12.43 14.89 -27.69 18.34 -33.85 l6.15 -11.45 16.98 0 16.98 0 0 67.08 0 67.08 -14.77 0 -14.77 0 -0.25 -42.09 -0.37 -42.22 -14.65 26.46 c-8 14.52 -16 28.80 -17.60 31.75 -2.83 5.05 -3.08 5.17 -9.35 5.17 l-6.40 0 -12.06 -21.91 c-6.65 -11.94 -14.77 -26.46 -18.09 -32.25 l-6.15 -10.46 0 42.83 0 42.71 -15.38 0 -15.38 0 0 -67.08z"/>
  <path d="M1156.92 462.03 c0 -0.49 4.55 -7.26 10.09 -15.14 20.18 -28.68 22.03 -31.51 21.54 -33.35 -0.25 -1.11 -7.14 -11.32 -15.14 -22.77 -8.12 -11.57 -15.14 -21.66 -15.63 -22.40 -0.74 -1.23 2.71 -1.60 16 -1.60 l16.98 0.12 6.65 10.83 c11.45 18.71 9.35 18.46 19.69 2.71 l9.11 -13.66 16.49 0 16.49 0 -5.91 8.37 c-3.20 4.55 -10.22 14.28 -15.51 21.66 -5.29 7.38 -10.09 14.40 -10.71 15.51 -0.86 1.72 2.46 7.26 15.38 25.60 9.11 12.80 16.62 23.75 16.62 24.12 0 0.37 -7.51 0.74 -16.62 0.74 l-16.62 0 -9.11 -13.66 -9.23 -13.78 -8.98 13.78 -8.98 13.66 -16.25 0 c-8.98 0 -16.37 -0.37 -16.37 -0.74z"/>
  <path d="M505.60 428.18 c-2.83 -1.60 -2.83 -6.03 0.25 -22.77 1.97 -11.20 2.09 -13.78 0.74 -15.88 -3.82 -5.91 -2.83 -13.54 2.09 -17.72 1.85 -1.48 2.09 -4.68 2.09 -23.63 0 -12.18 -0.49 -22.03 -1.11 -22.03 -0.49 0 -5.05 1.72 -10.09 3.82 -14.77 6.15 -19.20 6.03 -33.48 -0.62 -33.72 -15.75 -64.98 -22.15 -107.94 -22.15 -40.86 0 -73.72 6.52 -104.62 20.80 -8.12 3.69 -16.37 6.77 -18.58 6.77 -3.69 0 -65.97 -25.23 -72.12 -29.29 -3.82 -2.34 -3.69 -7.02 0.12 -9.60 5.42 -3.45 179.32 -77.78 188.80 -80.62 6.89 -1.97 7.75 -1.72 55.02 18.22 21.66 9.23 60.18 25.48 85.54 36.31 55.51 23.38 64.49 27.69 64.98 31.26 0.49 3.57 -1.23 4.80 -18.46 12.31 l-15.14 6.52 -0.37 24.25 -0.25 24.12 4.31 4.80 c4.68 5.17 5.29 8.62 2.71 15.02 -1.48 3.45 -1.23 5.66 1.72 19.32 1.97 8.49 3.57 16.25 3.57 17.48 0 1.11 -1.60 2.58 -3.82 3.32 -4.92 1.72 -23.14 1.72 -25.97 0z"/>
 </g>
</svg>